# xmcd CD database file
#
# Track frame offsets:
#	150
#	23468
#	42220
#	72551
#	83616
#	102040
#	120038
#	131278
#	145809
#	162335
#	179289
#
# Disc length: 2622 seconds
#
# Revision: 0
# Processed by: cddbd v1.5.1PL0 Copyright (c) Steve Scherf et al.
# Submitted via: CDex 1.51
#
DISCID=7d0a3c0b
DTITLE=Jason McNiff - Nobdy's Son
DYEAR=1900
DGENRE=Country
TTITLE0=Blow Up The Bridge
TTITLE1=Outta here
TTITLE2=I Remeber You
TTITLE3=Adieu to Lausanne
TTITLE4=Dont Dance With Me
TTITLE5=All Arround America
TTITLE6=Time goes Rollin By
TTITLE7=Nobodys Son
TTITLE8=Half Drunk
TTITLE9=O Caroline
TTITLE10=Weeping Willows Weep
EXTD=
EXTT0=
EXTT1=
EXTT2=
EXTT3=
EXTT4=
EXTT5=
EXTT6=
EXTT7=
EXTT8=
EXTT9=
EXTT10=
PLAYORDER=
